# xmcd CD database file
#
# Track frame offsets:
#	150
#	13795
#	36038
#	52473
#	70523
#	89651
#	111099
#	134549
#	153252
#	171180
#	188658
#
# Disc length: 2771 seconds
#
# Revision: 0
# Processed by: cddbd v1.4PL0 Copyright (c) Steve Scherf et al.
# Submitted via: CDex 1.50
#
DISCID=950ad10b
DTITLE=Harper - Way Down Deep Inside
DYEAR=2003
DGENRE=Blues
TTITLE0=Don't have to explain yourself
TTITLE1=Way down deep inside
TTITLE2=I know
TTITLE3=Soul food
TTITLE4=Does anybody really care
TTITLE5=Do whatever you want to
TTITLE6=Mystery
TTITLE7=I wonder
TTITLE8=I really don't know
TTITLE9=I swear I'm innocent
TTITLE10=As strange as it seems
EXTD=YEAR: 2003
EXTT0=
EXTT1=
EXTT2=
EXTT3=
EXTT4=
EXTT5=
EXTT6=
EXTT7=
EXTT8=
EXTT9=
EXTT10=
PLAYORDER=
